<?xml version="1.0" standalone="no"?>
<!DOCTYPE svg PUBLIC "-//W3C//DTD SVG 20010904//EN"
 "http://www.w3.org/TR/2001/REC-SVG-20010904/DTD/svg10.dtd">
<svg version="1.0" xmlns="http://www.w3.org/2000/svg"
 width="500.000000pt" height="500.000000pt" viewBox="0 0 500.000000 500.000000"
 preserveAspectRatio="xMidYMid meet">

<!-- Fond circulaire blanc cassé -->
<circle cx="250" cy="250" r="238" fill="#FAF9F6"/>

<g transform="translate(0.000000,500.000000) scale(0.100000,-0.100000)"
fill="#000000" stroke="none">
<path d="M2205 4894 c-385 -52 -716 -174 -1025 -379 -165 -109 -232 -164 -369
-298 -465 -459 -721 -1057 -721 -1688 0 -307 34 -529 121 -794 247 -749 861
-1341 1621 -1561 463 -133 955 -124 1428 28 147 47 425 180 560 268 466 304
812 756 983 1285 87 268 111 422 112 725 0 252 -12 363 -61 570 -233 987
-1053 1720 -2063 1846 -143 17 -451 17 -586 -2z m480 -94 c565 -53 1041 -270
1433 -654 201 -196 334 -381 458 -631 160 -325 236 -656 237 -1030 1 -259 -34
-472 -119 -725 -115 -347 -294 -633 -563 -900 -403 -402 -871 -617 -1457 -671
-215 -19 -509 6 -746 66 -200 50 -466 162 -628 265 -616 390 -994 976 -1091
1690 -20 143 -17 481 4 618 53 336 178 666 357 936 314 476 802 826 1343 965
269 69 530 93 772 71z"/>
<path d="M2223 4633 c-47 -4 -53 -7 -53 -26 0 -43 29 -350 34 -354 2 -2 20 -1
40 2 35 7 36 8 36 55 0 52 9 59 75 60 47 1 112 35 129 69 22 41 20 99 -4 139
-35 57 -81 67 -257 55z m167 -81 c29 -23 30 -70 2 -92 -17 -14 -110 -36 -118
-28 -1 2 -5 31 -9 65 -6 54 -5 62 12 66 42 11 92 6 113 -11z"/>
<path d="M2650 4633 c0 -5 -11 -80 -25 -168 -13 -88 -25 -167 -25 -176 0 -11
12 -18 37 -22 41 -7 53 2 53 43 1 42 14 53 53 46 31 -6 39 -14 61 -61 25 -55
25 -55 99 -70 22 -4 22 -5 -14 67 -24 48 -28 63 -18 67 8 2 29 19 47 37 28 28
32 39 32 84 0 47 -4 56 -37 90 -34 33 -48 39 -128 54 -99 18 -135 20 -135 9z
m178 -94 c12 -5 27 -20 34 -34 10 -22 8 -30 -9 -53 -24 -32 -40 -36 -100 -27
l-45 7 7 46 c11 82 12 83 53 76 20 -4 47 -11 60 -15z"/>
<path d="M3090 4368 c-77 -73 -140 -136 -140 -140 0 -4 17 -15 37 -23 36 -15
37 -15 68 15 l32 31 77 -32 c42 -17 76 -37 77 -43 1 -6 2 -18 3 -26 2 -8 3
-24 4 -35 1 -14 14 -25 38 -34 19 -7 37 -11 40 -9 2 3 1 93 -3 202 l-6 197
-28 15 c-15 8 -35 14 -44 14 -8 0 -78 -60 -155 -132z m152 -37 c-4 -69 -4 -70
-28 -60 -13 5 -36 14 -51 19 l-26 11 48 49 c27 28 52 50 55 50 3 0 4 -31 2
-69z"/>
<path d="M1645 4468 c-80 -41 -115 -95 -115 -178 0 -113 80 -190 197 -190 57
0 137 42 176 91 l25 32 -30 66 c-17 36 -31 67 -33 69 -1 1 -18 -5 -39 -13
l-36 -15 25 -50 25 -49 -34 -26 c-48 -37 -117 -35 -156 3 -81 82 -25 207 93
207 45 0 50 2 62 32 12 27 11 32 -2 37 -33 13 -119 5 -158 -16z"/>
<path d="M3498 4218 c-46 -62 -94 -128 -108 -147 l-24 -34 35 -29 c19 -16 67
-51 107 -78 58 -39 82 -50 114 -50 71 0 119 72 88 131 -9 16 -7 19 12 19 32 0
63 23 78 59 20 49 -10 94 -114 174 -48 37 -92 67 -97 67 -4 0 -45 -51 -91
-112z m175 -29 c26 -22 47 -48 47 -58 0 -21 -19 -41 -39 -41 -18 0 -111 61
-111 73 0 10 42 67 49 67 3 0 27 -18 54 -41z m-87 -121 c48 -36 55 -45 52 -72
-5 -47 -45 -47 -108 -1 -28 20 -50 41 -50 46 0 10 41 69 47 69 2 0 29 -19 59
-42z"/>
<path d="M1293 4264 l-32 -26 70 -85 c38 -47 69 -87 67 -88 -2 -2 -66 10 -142
26 l-139 30 -24 -23 c-13 -12 -21 -28 -19 -34 8 -20 218 -274 227 -274 4 0 20
11 36 24 l27 24 -67 82 c-37 46 -66 85 -64 86 2 2 64 -8 139 -23 131 -26 137
-26 163 -9 15 10 24 23 21 31 -4 12 -225 286 -229 285 -1 -1 -16 -12 -34 -26z"/>
<path d="M2290 3956 c-198 -32 -375 -94 -535 -191 -143 -86 -196 -128 -313
-250 -200 -207 -327 -447 -389 -736 -28 -132 -26 -428 5 -573 125 -584 563
-1022 1152 -1151 118 -26 394 -31 522 -10 544 90 996 475 1166 995 51 153 63
224 69 405 6 201 -13 339 -71 519 -164 498 -611 889 -1125 982 -118 21 -374
27 -481 10z m475 -101 c456 -93 845 -415 1014 -839 64 -162 91 -292 97 -476 9
-249 -29 -429 -141 -655 -75 -154 -161 -271 -281 -384 -117 -111 -205 -172
-349 -242 -202 -98 -381 -139 -606 -139 -224 0 -402 41 -604 139 -142 69 -230
130 -344 237 -165 155 -284 342 -356 557 -58 174 -70 251 -70 452 0 202 12
277 72 450 169 488 616 850 1132 915 96 13 343 4 436 -15z"/>
<path d="M2303 3655 c-28 -12 -53 -41 -53 -60 0 -10 52 4 68 17 19 16 33 46
24 51 -4 3 -21 -1 -39 -8z"/>
<path d="M2470 3646 c0 -28 45 -86 66 -86 23 0 16 46 -12 79 -31 37 -54 40
-54 7z"/>
<path d="M2625 3634 c-31 -33 -37 -101 -7 -85 29 16 51 46 58 79 8 41 -16 44
-51 6z"/>
<path d="M2175 3611 c-9 -30 3 -60 24 -58 14 1 16 7 12 36 -7 40 -26 52 -36
22z"/>
<path d="M2847 3614 c-17 -17 29 -104 55 -104 16 0 8 58 -13 84 -21 26 -31 31
-42 20z"/>
<path d="M2110 3576 c0 -14 11 -38 24 -53 22 -25 25 -26 32 -10 9 24 -21 87
-41 87 -9 0 -15 -9 -15 -24z"/>
<path d="M2031 3561 c-16 -29 -14 -81 3 -81 16 0 39 51 34 76 -5 25 -25 28
-37 5z"/>
<path d="M2275 3555 c-31 -16 -55 -42 -55 -58 0 -5 21 -7 47 -4 33 3 53 12 65
28 34 41 -1 63 -57 34z"/>
<path d="M2440 3535 c0 -43 23 -90 49 -105 29 -15 31 -13 31 29 0 40 -25 82
-61 101 -17 10 -19 7 -19 -25z"/>
<path d="M2571 3526 c-5 -104 -53 -159 -179 -206 -48 -18 -102 -44 -120 -57
-18 -14 -35 -23 -37 -22 -1 2 -17 26 -34 53 -37 60 -41 120 -12 196 11 27 17
50 15 50 -7 0 -54 -99 -54 -115 0 -21 -13 -19 -71 11 -61 31 -58 19 6 -21 29
-19 48 -39 51 -55 3 -14 16 -54 29 -90 20 -54 25 -87 27 -193 3 -121 2 -127
-17 -127 -36 0 -48 15 -41 52 5 28 1 41 -25 76 -39 53 -45 53 -18 1 17 -35 19
-48 11 -81 -9 -34 -7 -42 11 -63 12 -13 45 -31 73 -39 29 -9 59 -25 68 -35 10
-10 52 -33 94 -51 42 -18 87 -43 99 -56 21 -23 22 -25 6 -76 -19 -65 -19 -65
-26 -31 -8 38 -71 77 -149 93 -118 23 -209 48 -231 63 -13 8 -38 43 -56 77
-26 49 -32 69 -27 98 18 116 18 115 -13 184 -17 37 -31 76 -32 85 0 10 -3 13
-5 6 -3 -6 7 -50 22 -98 l27 -86 -24 -50 c-20 -43 -21 -55 -12 -90 11 -43 15
-41 -48 -23 -28 8 -55 74 -64 154 -8 82 -21 125 -43 142 -15 12 -16 11 -3 -5
9 -11 17 -59 22 -127 5 -60 15 -125 24 -146 8 -20 15 -38 15 -39 0 -8 -156
-27 -185 -22 -19 3 -33 2 -30 -3 3 -5 -8 -8 -25 -8 -31 1 -59 -16 -47 -28 12
-12 60 -7 71 8 11 15 73 21 232 22 l71 1 59 -62 59 -61 147 -47 c81 -26 151
-51 154 -57 4 -5 -4 -4 -17 3 -17 10 -64 14 -154 14 -71 1 -139 5 -150 10 -11
5 -53 30 -93 56 -105 69 -116 70 -226 15 -92 -47 -130 -54 -169 -35 -21 10
-21 10 -3 -5 23 -18 98 -21 128 -5 11 6 22 8 25 5 13 -13 -18 -56 -54 -76 -26
-14 -30 -19 -13 -14 39 9 73 38 94 77 11 21 34 43 55 53 34 16 37 16 76 -5 48
-26 136 -102 115 -100 -64 6 -111 -3 -137 -27 l-28 -25 28 17 c22 13 40 15 95
10 37 -4 130 -10 207 -14 120 -6 146 -11 180 -30 80 -46 107 -120 93 -259 -13
-140 -51 -218 -125 -254 -41 -20 -63 -24 -143 -24 -52 1 -146 9 -209 20 -104
17 -121 17 -205 4 -50 -8 -126 -14 -169 -13 -89 1 -82 -14 11 -23 l57 -6 -50
-24 c-66 -30 -37 -29 55 2 43 15 96 25 129 25 l55 0 -70 -47 c-38 -26 -98 -58
-134 -70 l-65 -23 53 4 c33 3 88 21 143 47 115 53 147 56 256 30 48 -11 102
-23 118 -25 17 -3 -6 -2 -50 2 -147 11 -164 9 -248 -36 -70 -37 -87 -42 -150
-43 l-72 -2 76 -9 c73 -10 78 -9 147 21 87 38 137 39 226 6 37 -14 76 -25 89
-26 38 -1 -30 -27 -93 -34 -30 -4 -95 -16 -145 -27 -66 -14 -112 -18 -175 -14
-87 5 -65 -3 53 -20 l48 -7 -23 -25 c-13 -13 -36 -33 -53 -43 -16 -11 -26 -19
-22 -19 18 0 75 30 111 59 21 17 49 31 61 31 21 0 22 -3 17 -47 -6 -58 -15
-70 -67 -94 l-40 -18 35 6 c19 3 48 12 63 20 27 14 28 13 44 -24 14 -35 14
-40 -1 -68 l-16 -30 20 24 c23 27 25 61 8 126 -15 56 -6 73 44 91 36 12 37 12
47 -19 6 -17 21 -41 32 -54 15 -15 20 -30 17 -47 -7 -34 0 -33 13 1 8 21 6 36
-7 65 -20 45 -14 66 23 73 90 19 103 25 104 53 1 18 4 12 9 -18 11 -58 5 -77
-28 -94 -15 -8 -36 -24 -47 -37 l-20 -23 25 17 c13 9 32 17 41 17 9 0 28 9 42
20 34 27 37 26 37 -14 0 -39 -25 -65 -115 -116 -56 -32 -75 -55 -74 -87 0 -15
2 -15 9 3 10 26 18 32 96 65 l60 26 1 -34 c1 -29 61 -148 70 -139 2 2 -8 27
-22 57 -32 69 -31 84 6 139 30 44 31 47 26 131 -7 107 9 146 84 209 l54 45
-35 -43 c-79 -98 -84 -122 -50 -244 25 -92 25 -112 -5 -173 -14 -27 -25 -59
-25 -70 1 -15 4 -13 14 10 7 17 21 36 30 44 25 21 46 66 46 97 0 26 0 27 20 9
26 -24 25 -16 -5 41 -28 52 -33 133 -12 172 12 22 13 21 13 -13 0 -30 9 -45
58 -94 56 -57 59 -61 57 -108 0 -26 -5 -64 -11 -83 -17 -60 -10 -58 15 5 13
33 24 75 24 93 1 17 6 32 11 32 6 0 33 -22 60 -48 55 -53 59 -71 34 -130 -44
-103 -41 -110 11 -19 19 35 35 75 35 90 l0 25 43 -19 c82 -38 92 -45 110 -79
l19 -35 -6 34 c-8 43 -19 56 -75 89 -56 32 -188 131 -218 164 -30 31 -43 71
-42 121 l1 42 10 -45 c20 -94 48 -119 157 -144 35 -8 77 -24 93 -36 15 -11 28
-16 28 -11 0 23 -43 58 -101 81 -34 14 -64 31 -67 38 -3 11 0 12 16 3 11 -6
54 -11 94 -11 90 0 114 -13 104 -56 -16 -67 -17 -83 -7 -101 10 -16 11 -15 6
7 -5 19 2 36 24 64 17 21 31 47 31 57 0 17 3 17 44 3 24 -9 47 -22 50 -31 4
-8 -1 -39 -10 -68 -18 -56 -15 -88 11 -120 16 -20 16 -20 6 2 -15 29 -14 75 2
96 11 16 15 16 42 4 34 -16 85 -30 85 -23 0 3 -20 14 -45 25 -25 11 -46 25
-46 30 -1 6 -2 23 -3 39 -1 15 -5 37 -9 49 -8 20 -6 21 23 13 17 -5 52 -24 78
-43 26 -19 58 -38 72 -42 23 -6 22 -5 -5 13 -16 11 -41 31 -54 46 l-24 26 29
0 c16 1 58 7 94 15 l65 14 -85 -5 c-63 -4 -107 0 -170 15 -47 10 -110 22 -140
26 -61 7 -131 33 -94 34 12 1 52 12 88 26 84 32 136 32 205 -1 67 -30 123 -39
176 -26 l40 10 -58 1 c-48 1 -72 9 -145 47 -80 42 -91 46 -137 40 -61 -8 -202
-16 -160 -10 17 3 69 14 116 24 118 27 143 25 229 -16 79 -38 168 -65 210 -63
24 1 24 1 -5 10 -16 5 -46 15 -65 21 -19 6 -54 24 -78 40 -24 17 -62 40 -84
53 l-39 22 73 -5 c40 -2 101 -15 137 -28 77 -29 113 -30 51 -2 l-45 20 64 14
c76 16 93 27 28 18 -29 -4 -93 0 -164 11 -101 16 -126 17 -197 6 -290 -44
-369 -38 -440 33 -50 50 -76 127 -84 252 -5 92 6 138 46 186 43 51 93 68 206
68 54 0 138 5 186 12 47 6 98 8 113 4 23 -5 26 -9 17 -26 -15 -28 -12 -55 8
-81 l19 -22 7 26 c3 14 2 37 -3 50 -6 14 -8 27 -5 29 12 13 -43 42 -96 52
l-61 11 49 38 c27 20 64 45 82 53 30 15 35 15 67 0 19 -9 42 -30 51 -47 28
-52 46 -69 80 -78 20 -6 30 -6 27 0 -4 5 -12 9 -19 9 -15 0 -50 38 -60 64 -5
15 -3 17 16 12 88 -27 130 -23 164 16 l19 22 -29 -22 c-42 -32 -84 -28 -173
20 -108 57 -140 57 -229 -3 -114 -76 -107 -74 -249 -74 -89 0 -137 -4 -154
-14 -13 -7 -20 -8 -17 -2 4 6 60 27 124 47 156 49 188 66 244 127 l46 52 99
-2 c54 -1 111 -4 127 -7 34 -6 85 13 106 40 12 14 9 14 -14 -4 -17 -13 -43
-22 -64 -22 -31 0 -162 20 -170 26 -2 1 4 15 14 30 14 20 20 56 24 138 5 86
11 118 26 141 10 16 13 26 6 21 -22 -13 -40 -60 -47 -121 -15 -140 -36 -184
-96 -199 -26 -6 -26 -5 -21 43 3 33 -1 60 -12 82 -21 42 -20 64 4 134 28 82
25 90 -8 20 -42 -88 -45 -109 -25 -164 l17 -49 -38 -76 c-20 -42 -47 -81 -58
-87 -29 -16 -209 -61 -216 -54 -3 3 0 5 6 5 6 0 14 10 18 23 4 12 22 40 41 61
18 22 40 65 49 95 9 31 22 75 29 98 17 59 1 44 -39 -35 -59 -115 -60 -115 -81
-39 -10 36 -15 76 -12 89 7 24 42 64 121 136 73 67 89 126 69 258 -7 45 -8 41
-13 -48 -6 -113 -15 -131 -106 -195 l-59 -42 -24 47 c-14 26 -30 67 -36 91
-19 72 -24 17 -6 -73 13 -67 13 -84 1 -125 -8 -27 -14 -92 -15 -157 0 -105 -1
-112 -28 -147 -15 -20 -32 -37 -38 -37 -5 0 -19 -15 -30 -32 -15 -24 -19 -26
-14 -10 10 34 -2 73 -35 110 -48 55 -47 65 9 173 55 105 64 161 37 224 -13 29
-13 28 -8 -21 6 -65 -10 -98 -89 -189 -33 -38 -63 -82 -66 -98 -5 -23 -9 -26
-27 -21 -59 18 -92 41 -109 75 -19 41 -33 153 -23 192 11 47 57 87 157 138 61
31 109 63 124 83 28 36 48 111 42 152 l-4 29 -2 -29z"/>
<path d="M2665 3536 c-36 -15 -71 -64 -58 -77 15 -15 72 2 103 31 54 51 27 78
-45 46z"/>
<path d="M2987 3529 c-19 -11 -52 -68 -43 -76 8 -9 46 8 66 30 37 39 21 71
-23 46z"/>
<path d="M1906 3499 c-18 -26 -21 -81 -6 -110 14 -26 25 -24 38 6 15 34 15 74
-2 104 l-13 24 -17 -24z"/>
<path d="M3062 3496 c-15 -34 -15 -68 0 -101 13 -30 24 -32 38 -6 16 30 12 86
-8 111 l-18 22 -12 -26z"/>
<path d="M2092 3479 c2 -19 8 -33 13 -31 15 3 12 55 -3 60 -10 3 -13 -5 -10
-29z"/>
<path d="M2830 3485 c0 -17 12 -38 33 -58 l32 -32 3 28 c4 29 -16 60 -50 78
-15 8 -18 5 -18 -16z"/>
<path d="M2370 3461 c-20 -38 -6 -121 20 -121 4 0 14 15 20 34 9 27 8 42 -4
70 -17 41 -21 43 -36 17z"/>
<path d="M2219 3430 c-32 -31 -31 -50 1 -50 23 0 80 47 80 66 0 25 -50 16 -81
-16z"/>
<path d="M2737 3438 c-22 -16 -39 -75 -25 -84 14 -9 55 35 63 69 8 30 -8 37
-38 15z"/>
<path d="M1960 3378 c-23 -37 -27 -83 -7 -72 34 19 57 50 57 76 0 39 -25 36
-50 -4z"/>
<path d="M2820 3380 c0 -30 37 -80 60 -80 30 0 -1 79 -41 100 -17 10 -19 7
-19 -20z"/>
<path d="M2990 3382 c0 -29 35 -72 58 -72 18 0 14 31 -8 68 -25 40 -50 43 -50
4z"/>
<path d="M1810 3379 c0 -31 18 -57 51 -75 36 -18 42 -15 34 19 -14 56 -85 103
-85 56z"/>
<path d="M2566 3379 c-32 -25 -33 -37 -2 -45 28 -7 76 17 94 47 11 17 9 19
-27 19 -24 0 -48 -8 -65 -21z"/>
<path d="M3136 3375 c-23 -25 -42 -73 -32 -82 8 -8 65 27 76 46 15 29 12 61
-5 61 -9 0 -27 -11 -39 -25z"/>
<path d="M1731 3372 c-25 -46 -2 -144 26 -110 20 24 20 85 -1 113 -13 18 -14
18 -25 -3z"/>
<path d="M2040 3376 c0 -19 47 -56 71 -56 30 0 22 28 -13 50 -39 24 -58 25
-58 6z"/>
<path d="M3236 3359 c-12 -28 -13 -45 -5 -73 5 -20 14 -36 19 -36 29 0 40 92
16 126 -14 18 -15 17 -30 -17z"/>
<path d="M2273 3360 c-22 -20 -40 -66 -31 -76 19 -19 62 38 56 75 l-3 22 -22
-21z"/>
<path d="M2760 3315 c-13 -35 -6 -88 16 -106 13 -10 17 -10 25 2 15 25 10 85
-10 110 l-19 24 -12 -30z"/>
<path d="M2605 3276 c-21 -32 -13 -85 10 -66 18 15 30 69 17 82 -7 7 -16 2
-27 -16z"/>
<path d="M1978 3273 c-21 -25 -31 -59 -23 -84 l7 -21 24 23 c17 16 24 33 24
61 0 42 -9 47 -32 21z"/>
<path d="M2422 3283 c-10 -4 -10 -8 -1 -19 13 -16 57 -18 79 -4 13 9 13 11 0
20 -16 10 -56 12 -78 3z"/>
<path d="M2990 3253 c0 -27 7 -47 22 -63 l22 -23 10 22 c8 18 6 31 -9 59 -28
51 -45 53 -45 5z"/>
<path d="M1800 3259 c0 -21 58 -69 84 -69 26 0 26 1 12 28 -20 39 -96 71 -96
41z"/>
<path d="M2054 3245 c-7 -30 2 -59 16 -50 13 8 13 62 0 70 -5 3 -12 -6 -16
-20z"/>
<path d="M3145 3258 c-21 -11 -54 -48 -55 -60 0 -5 12 -8 26 -8 26 0 84 48 84
69 0 14 -29 14 -55 -1z"/>
<path d="M1606 3231 c-10 -15 22 -33 58 -33 46 0 61 9 45 28 -13 15 -94 20
-103 5z"/>
<path d="M3291 3226 c-16 -19 1 -30 47 -28 36 2 65 18 56 33 -9 15 -90 10
-103 -5z"/>
<path d="M2477 3223 c-14 -13 -6 -42 19 -72 32 -38 44 -39 44 -3 -1 36 -47 92
-63 75z"/>
<path d="M2102 3208 c-7 -7 -12 -28 -12 -47 l1 -36 19 24 c20 23 28 71 12 71
-4 0 -13 -5 -20 -12z"/>
<path d="M2330 3213 c-24 -9 -50 -35 -44 -44 9 -16 61 -10 84 9 36 29 8 53
-40 35z"/>
<path d="M1651 3145 c6 -27 54 -58 89 -57 44 1 48 9 18 38 -32 33 -112 47
-107 19z"/>
<path d="M2132 3139 c-14 -21 -16 -49 -4 -49 14 0 32 23 32 41 0 26 -14 30
-28 8z"/>
<path d="M2854 3146 c-18 -14 -18 -15 6 -24 26 -10 45 -6 68 11 11 8 11 12 0
18 -20 13 -52 11 -74 -5z"/>
<path d="M3275 3151 c-22 -9 -61 -49 -54 -55 6 -6 30 -9 57 -7 27 1 76 46 67
61 -7 12 -42 12 -70 1z"/>
<path d="M1840 3141 c0 -22 53 -71 76 -71 32 0 30 15 -5 51 -28 27 -71 40 -71
20z"/>
<path d="M2000 3131 c10 -20 47 -37 57 -27 10 10 -29 46 -49 46 -15 0 -17 -3
-8 -19z"/>
<path d="M2955 3130 c-10 -11 -16 -23 -12 -26 10 -10 47 7 57 27 9 16 7 19 -8
19 -10 0 -27 -9 -37 -20z"/>
<path d="M3089 3121 c-35 -36 -37 -51 -5 -51 23 0 76 49 76 71 0 20 -43 7 -71
-20z"/>
<path d="M2427 3126 c-17 -44 8 -126 34 -111 16 11 10 82 -9 105 -17 21 -19
21 -25 6z"/>
<path d="M2623 3118 c-11 -13 -24 -33 -28 -45 -5 -19 -2 -23 13 -23 22 0 72
53 72 76 0 22 -34 17 -57 -8z"/>
<path d="M2308 3097 c-26 -24 -44 -64 -34 -74 3 -3 19 0 36 7 28 12 60 54 60
80 0 18 -36 11 -62 -13z"/>
<path d="M1494 3075 c-8 -33 1 -66 27 -99 17 -21 24 -25 30 -14 16 25 10 85
-12 112 -26 33 -37 33 -45 1z"/>
<path d="M3461 3074 c-22 -28 -30 -107 -12 -119 12 -7 49 40 57 72 7 27 -3 73
-15 73 -5 0 -19 -12 -30 -26z"/>
<path d="M2793 3063 c-23 -23 -32 -73 -13 -73 16 0 42 48 38 72 l-3 23 -22
-22z"/>
<path d="M2030 3056 c0 -9 11 -18 25 -22 48 -12 45 16 -2 31 -17 5 -23 2 -23
-9z"/>
<path d="M2928 3059 c-10 -5 -18 -14 -18 -19 0 -14 34 -12 48 2 26 26 5 38
-30 17z"/>
<path d="M1677 3033 c-4 -3 3 -17 15 -30 15 -16 32 -23 57 -23 l36 1 -33 29
c-31 29 -61 38 -75 23z"/>
<path d="M1872 3028 c-14 -14 -16 -68 -2 -68 13 0 30 34 30 59 0 24 -10 27
-28 9z"/>
<path d="M3100 3019 c0 -25 17 -59 30 -59 14 0 12 54 -2 68 -18 18 -28 15 -28
-9z"/>
<path d="M3258 3023 c-42 -26 -43 -43 -4 -43 21 0 40 8 54 23 36 38 1 51 -50
20z"/>
<path d="M1994 3006 c-8 -14 -14 -35 -12 -48 l3 -23 23 23 c22 22 31 72 12 72
-5 0 -17 -11 -26 -24z"/>
<path d="M2970 3005 c0 -14 10 -35 23 -47 l22 -23 3 23 c4 24 -22 72 -38 72
-6 0 -10 -11 -10 -25z"/>
<path d="M2350 3001 c-12 -23 -13 -71 -2 -71 18 0 32 26 32 57 0 37 -14 43
-30 14z"/>
<path d="M1607 2993 c-19 -18 9 -113 33 -113 19 0 23 52 7 86 -16 33 -27 41
-40 27z"/>
<path d="M3354 2967 c-17 -35 -13 -87 6 -87 16 0 41 59 38 87 -5 39 -25 39
-44 0z"/>
<path d="M1420 2962 c0 -18 26 -32 59 -32 33 0 34 0 16 20 -17 19 -75 28 -75
12z"/>
<path d="M2559 2941 c-28 -29 -40 -81 -19 -81 23 0 60 50 60 80 0 37 -4 37
-41 1z"/>
<path d="M3505 2950 c-18 -20 -17 -20 16 -20 33 0 59 14 59 32 0 16 -58 7 -75
-12z"/>
<path d="M2906 2944 c-10 -27 -7 -59 10 -82 20 -29 34 -19 34 24 0 57 -29 96
-44 58z"/>
<path d="M1700 2937 c0 -19 33 -47 53 -47 23 0 21 13 -6 38 -26 25 -47 29 -47
9z"/>
<path d="M3256 2929 c-30 -24 -34 -39 -8 -39 21 0 52 29 52 48 0 18 -14 15
-44 -9z"/>
<path d="M2040 2901 c-13 -26 -13 -58 1 -67 16 -9 29 15 29 54 0 36 -14 42
-30 13z"/>
<path d="M1483 2900 c-13 -5 -23 -14 -23 -19 0 -16 46 -24 69 -11 25 13 27 26
5 34 -19 7 -23 7 -51 -4z"/>
<path d="M3460 2900 c-13 -9 -12 -12 4 -25 23 -17 44 -19 66 -5 10 6 11 12 5
19 -16 16 -59 22 -75 11z"/>
<path d="M1570 2896 c0 -2 8 -10 18 -17 15 -13 16 -12 3 4 -13 16 -21 21 -21
13z"/>
<path d="M1380 2846 c0 -24 44 -86 61 -86 24 0 2 73 -30 97 -24 18 -31 16 -31
-11z"/>
<path d="M2137 2852 c-19 -21 -13 -32 17 -32 24 0 66 26 66 41 0 17 -66 10
-83 -9z"/>
<path d="M3592 2863 c-27 -11 -57 -103 -33 -103 17 0 61 62 61 86 0 24 -4 27
-28 17z"/>
<path d="M2822 2833 l-27 -28 23 -3 c25 -4 47 10 63 40 16 30 -27 23 -59 -9z"/>
<path d="M3397 2852 c-29 -6 -14 -27 23 -30 44 -5 60 13 23 25 -15 5 -36 7
-46 5z"/>
<path d="M1862 2843 c-7 -2 -17 -13 -22 -24 -14 -24 11 -27 34 -3 26 26 20 40
-12 27z"/>
<path d="M3110 2841 c0 -14 30 -41 45 -41 19 0 8 28 -16 40 -22 12 -29 13 -29
1z"/>
<path d="M3202 2833 c4 -19 55 -59 64 -50 11 10 -23 54 -46 60 -16 4 -20 1
-18 -10z"/>
<path d="M1746 2818 c-21 -29 -20 -39 2 -31 22 8 52 34 52 45 0 17 -40 7 -54
-14z"/>
<path d="M1657 2812 c-17 -18 -23 -42 -11 -42 14 0 45 22 54 40 9 17 8 20 -8
20 -10 0 -26 -8 -35 -18z"/>
<path d="M3300 2810 c9 -18 40 -40 54 -40 3 0 6 6 6 13 0 19 -33 47 -54 47
-14 0 -15 -4 -6 -20z"/>
<path d="M2230 2805 c-11 -13 -8 -15 18 -15 16 0 35 7 42 15 11 13 8 15 -18
15 -16 0 -35 -7 -42 -15z"/>
<path d="M1515 2777 c-7 -26 18 -87 35 -87 19 0 11 76 -10 95 -18 17 -19 16
-25 -8z"/>
<path d="M1892 2788 c-18 -18 -15 -28 9 -28 25 0 59 17 59 30 0 14 -54 12 -68
-2z"/>
<path d="M3040 2790 c0 -15 46 -34 65 -26 14 5 15 9 5 21 -14 17 -70 21 -70 5z"/>
<path d="M3457 2782 c-18 -20 -24 -92 -7 -92 19 0 44 67 34 90 -9 21 -10 21
-27 2z"/>
<path d="M1366 2699 c-36 -28 -33 -39 13 -39 37 0 91 30 91 51 0 18 -77 9
-104 -12z"/>
<path d="M3530 2711 c0 -21 54 -51 91 -51 46 0 49 11 13 39 -27 21 -104 30
-104 12z"/>
<path d="M1737 2703 c-4 -3 -7 -17 -7 -31 0 -21 2 -22 15 -12 8 7 15 21 15 31
0 19 -11 25 -23 12z"/>
<path d="M3240 2692 c0 -11 7 -25 16 -33 14 -11 15 -9 12 16 -3 32 -28 47 -28
17z"/>
<path d="M1457 2649 c-26 -20 -56 -93 -44 -106 23 -22 97 57 97 105 0 28 -19
28 -53 1z"/>
<path d="M3490 2648 c0 -32 35 -86 65 -100 34 -15 40 -5 26 41 -18 63 -91 109
-91 59z"/>
<path d="M1560 2648 c-23 -8 -23 -10 -7 -19 21 -12 73 -8 70 6 -3 16 -37 23
-63 13z"/>
<path d="M1780 2650 c0 -13 48 -32 61 -24 16 10 -11 34 -37 34 -13 0 -24 -5
-24 -10z"/>
<path d="M3161 2646 c-7 -9 -8 -17 -2 -20 13 -8 61 11 61 24 0 15 -46 12 -59
-4z"/>
<path d="M3402 2651 c-13 -3 -23 -10 -23 -16 -1 -17 36 -23 61 -10 22 12 22
13 4 22 -10 6 -29 7 -42 4z"/>
<path d="M1714 2596 c-18 -14 -18 -15 8 -21 27 -7 68 8 68 25 0 15 -54 12 -76
-4z"/>
<path d="M3212 2598 c7 -20 56 -34 69 -21 18 18 1 33 -37 33 -24 0 -34 -4 -32
-12z"/>
<path d="M1636 2580 c-13 -38 -10 -71 9 -96 13 -16 16 -17 25 -4 16 24 12 66
-9 91 -16 19 -21 21 -25 9z"/>
<path d="M1876 2583 c-3 -3 -6 -17 -6 -31 0 -21 2 -22 15 -12 8 7 15 18 15 26
0 15 -15 26 -24 17z"/>
<path d="M3104 2575 c-4 -9 0 -24 10 -33 15 -15 16 -14 16 10 0 32 -17 46 -26
23z"/>
<path d="M3336 2568 c-18 -25 -21 -66 -6 -88 16 -23 40 15 40 61 0 46 -13 57
-34 27z"/>
<path d="M1806 2559 c-18 -26 -20 -56 -7 -78 7 -10 12 -8 25 10 18 26 20 56 7
78 -7 10 -12 8 -25 -10z"/>
<path d="M1516 2528 c-17 -24 -21 -58 -8 -58 16 0 42 36 42 58 0 28 -15 28
-34 0z"/>
<path d="M3450 2527 c0 -22 27 -57 43 -57 13 0 7 35 -9 58 -20 29 -34 28 -34
-1z"/>
<path d="M3900 3889 c-74 -22 -159 -46 -188 -54 l-52 -16 25 -33 c26 -34 26
-34 68 -21 l43 13 54 -65 c57 -70 55 -63 26 -134 -5 -10 3 -28 20 -49 l28 -32
92 183 91 183 -26 33 c-14 18 -30 32 -36 32 -5 -1 -71 -19 -145 -40z m84 -101
c-41 -83 -42 -83 -80 -36 -19 22 -33 43 -30 45 4 5 114 40 129 42 4 1 -5 -23
-19 -51z"/>
<path d="M842 3810 c-12 -16 -22 -33 -22 -38 0 -8 185 -340 195 -350 1 -2 15
12 29 31 l26 34 -22 40 -22 40 49 64 c27 35 50 66 51 68 2 2 22 -1 44 -7 39
-10 41 -9 67 24 14 19 24 36 22 38 -4 3 -378 86 -390 86 -3 0 -15 -13 -27 -30z
m176 -80 l42 -11 -32 -44 c-18 -24 -37 -43 -41 -42 -4 1 -23 30 -43 64 l-34
61 32 -8 c18 -5 52 -14 76 -20z"/>
<path d="M4103 3533 l-162 -75 19 -39 20 -38 97 44 c53 25 97 44 99 42 2 -2
-24 -59 -57 -127 -38 -79 -58 -132 -55 -145 15 -54 15 -53 190 30 91 43 166
82 166 87 0 12 -29 68 -35 68 -3 0 -46 -21 -96 -46 -50 -25 -93 -43 -95 -41
-2 2 23 60 56 129 55 114 59 127 49 156 -6 18 -16 32 -22 31 -7 0 -85 -34
-174 -76z"/>
<path d="M640 3484 c-7 -20 -8 -39 -4 -43 5 -5 52 -25 104 -45 52 -21 105 -47
118 -59 46 -43 13 -137 -49 -137 -16 0 -78 20 -138 44 l-109 44 -18 -39 c-9
-22 -15 -41 -13 -42 15 -12 212 -87 242 -92 124 -24 234 142 167 252 -24 40
-48 56 -157 103 -134 57 -129 57 -143 14z"/>
<path d="M4265 3109 c-38 -11 -99 -74 -114 -118 -23 -69 -5 -166 42 -224 22
-27 23 -27 82 -17 95 17 93 16 86 53 -7 32 -8 32 -66 32 l-60 0 -13 39 c-25
77 22 146 105 153 42 4 52 1 82 -24 28 -24 34 -37 38 -79 3 -30 0 -60 -6 -73
-10 -19 -9 -25 11 -41 31 -26 43 -25 56 4 48 106 0 241 -102 287 -44 20 -92
23 -141 8z"/>
<path d="M796 3021 c-2 -3 -9 -42 -16 -86 -7 -44 -16 -83 -19 -87 -4 -4 -71 3
-151 17 -79 13 -145 23 -146 22 -1 -1 -5 -20 -8 -43 l-7 -40 181 -28 c99 -16
183 -26 186 -24 5 6 44 223 44 249 0 11 -11 18 -30 21 -17 3 -32 2 -34 -1z"/>
<path d="M534 2426 c-39 -39 -45 -86 -19 -136 54 -104 215 -62 215 56 0 39 -5
51 -34 80 -29 29 -41 34 -81 34 -40 0 -52 -5 -81 -34z"/>
<path d="M4304 2426 c-28 -28 -34 -41 -34 -78 0 -50 18 -82 60 -103 82 -42
170 15 170 111 0 28 -8 44 -34 70 -29 29 -41 34 -81 34 -40 0 -52 -5 -81 -34z"/>
<path d="M725 2070 l-170 -48 2 -32 c2 -50 13 -54 90 -32 l69 19 18 -66 c10
-36 21 -73 23 -82 4 -14 -10 -21 -67 -35 l-72 -19 6 -34 c3 -19 9 -38 14 -43
4 -4 86 15 182 42 96 28 176 50 176 50 1 0 -3 18 -8 40 -6 22 -13 40 -17 40
-3 0 -36 -9 -73 -19 l-66 -19 -21 77 c-12 43 -21 80 -21 83 0 4 26 14 58 23
31 9 62 18 69 20 8 3 8 14 1 44 -6 23 -13 41 -17 40 -3 0 -82 -22 -176 -49z"/>
<path d="M4091 2091 c-12 -16 -27 -52 -34 -79 -27 -106 4 -179 80 -189 54 -7
76 9 128 94 32 55 45 68 65 68 19 0 26 -6 28 -25 5 -35 -15 -95 -43 -129 l-25
-29 26 -21 27 -21 24 21 c32 31 63 120 63 180 0 45 -4 55 -34 85 -26 26 -42
34 -71 34 -43 0 -71 -26 -119 -110 -34 -60 -67 -76 -85 -42 -13 24 3 85 31
125 l20 27 -24 20 c-30 25 -33 25 -57 -9z"/>
<path d="M4020 1768 c-40 -21 -51 -34 -98 -126 l-54 -103 166 -79 c92 -44 169
-80 171 -80 6 0 35 56 35 68 0 4 -20 18 -45 30 l-45 22 17 34 c15 32 21 36 83
46 60 10 67 14 80 43 7 18 16 36 18 41 4 8 -62 2 -114 -10 -18 -5 -23 0 -28
28 -7 38 -46 81 -89 97 -39 15 -47 14 -97 -11z m88 -84 c28 -19 29 -61 2 -114
l-20 -40 -55 27 c-30 15 -55 31 -55 36 0 12 30 70 48 90 19 21 51 22 80 1z"/>
<path d="M860 1649 c-80 -44 -149 -84 -154 -89 -5 -5 20 -62 59 -134 l67 -125
27 17 c14 9 28 17 30 18 2 2 -18 41 -43 87 -25 47 -46 88 -46 91 0 7 55 36 68
36 5 0 26 -31 46 -70 21 -38 39 -70 41 -70 11 0 55 24 55 30 0 4 -18 39 -39
79 l-40 71 29 15 c16 8 33 15 39 15 5 0 29 -36 52 -80 24 -44 48 -80 53 -80 6
0 20 7 31 16 20 15 19 17 -42 132 -34 64 -68 118 -75 119 -7 1 -78 -34 -158
-78z"/>
<path d="M3821 1466 c-13 -14 -22 -29 -20 -35 2 -6 42 -43 89 -84 96 -83 113
-108 98 -146 -15 -41 -39 -61 -72 -61 -35 0 -55 11 -141 84 -33 27 -67 56 -76
63 -14 12 -20 9 -43 -21 l-26 -35 99 -79 c114 -92 155 -110 211 -93 48 14 117
85 131 134 12 45 -1 100 -34 138 -22 25 -181 159 -189 159 -3 0 -15 -11 -27
-24z"/>
<path d="M1060 1345 c-178 -152 -164 -134 -130 -173 l30 -32 39 35 39 35 26
-31 c15 -17 25 -39 22 -48 -28 -98 -28 -101 0 -138 31 -40 35 -37 54 45 l12
52 46 0 c59 0 90 16 119 59 44 65 23 132 -75 239 l-57 63 -125 -106z m186 -77
c18 -35 18 -57 -3 -80 -28 -32 -71 -23 -116 24 l-39 41 48 43 49 42 23 -21
c13 -12 30 -34 38 -49z"/>
<path d="M1316 1030 l-117 -140 28 -25 c15 -13 33 -24 38 -24 6 0 31 26 56 57
26 31 77 95 115 141 l68 83 -27 24 c-16 13 -32 24 -36 24 -4 0 -61 -63 -125
-140z"/>
<path d="M3520 1131 c-108 -33 -168 -117 -158 -222 10 -100 85 -164 192 -164
73 1 131 33 172 95 97 146 -41 341 -206 291z m98 -91 c66 -41 78 -131 23 -184
-56 -53 -140 -41 -181 27 -37 59 -17 131 44 161 42 21 75 20 114 -4z"/>
<path d="M1505 1070 l-16 -30 50 -32 c28 -17 49 -33 47 -37 -2 -3 -36 -59 -75
-123 -39 -64 -71 -121 -71 -126 0 -6 15 -19 33 -30 l33 -19 78 128 c43 71 81
129 85 129 4 0 11 -4 17 -8 5 -5 26 -19 46 -31 l37 -22 15 29 c12 24 13 32 3
40 -9 8 -113 71 -259 158 -4 3 -14 -9 -23 -26z"/>
<path d="M3142 914 c-79 -34 -146 -65 -148 -67 -8 -8 19 -57 30 -57 6 0 31 9
55 20 24 11 44 20 45 20 2 0 29 -62 61 -137 32 -76 59 -139 60 -141 4 -5 75
32 75 39 0 4 -25 65 -55 135 -30 70 -55 131 -55 135 0 3 23 16 50 28 52 22 57
32 37 67 -12 21 -14 20 -155 -42z"/>
<path d="M1795 739 c-71 -76 -131 -143 -133 -148 -2 -5 13 -15 33 -21 35 -12
38 -11 69 19 l32 31 79 -29 80 -29 3 -44 c3 -43 5 -46 43 -57 23 -7 42 -11 43
-9 4 4 -31 399 -35 402 -7 5 -72 26 -78 25 -3 0 -64 -63 -136 -140z m155 -41
c0 -32 -4 -58 -8 -58 -5 0 -29 7 -55 16 l-47 16 47 54 c54 63 63 59 63 -28z"/>
<path d="M2683 792 c-99 -12 -123 -19 -123 -31 0 -19 41 -355 43 -357 6 -4
277 33 283 38 3 4 3 20 -1 37 -6 27 -9 29 -38 25 -93 -14 -162 -21 -165 -19
-2 2 -6 21 -9 43 l-5 39 48 7 c124 17 124 17 124 39 0 41 -10 44 -93 34 -42
-6 -79 -8 -81 -6 -2 2 -7 20 -11 40 l-7 36 59 7 c148 17 139 14 135 52 -3 24
-9 34 -21 33 -9 -1 -71 -9 -138 -17z"/>
<path d="M2244 771 c-144 -65 -141 -279 5 -344 81 -36 216 -20 225 26 3 12 7
48 10 80 6 55 5 57 -18 57 -13 0 -31 2 -38 5 -11 4 -17 -9 -24 -52 l-9 -58
-45 -3 c-115 -7 -173 124 -90 203 40 38 113 41 159 7 l32 -23 31 22 31 23 -32
26 c-61 51 -163 65 -237 31z"/>
</g>
</svg>
